<svg width="400" height="720" viewBox="0 0 400 720" fill="none" xmlns="http://www.w3.org/2000/svg">
    <rect width="400" height="720" rx="10" fill="#E86D6D"/>
    <rect x="0.5" y="0.5" width="39" height="39" stroke="black" stroke-opacity="0.3"/>
    <rect x="0.5" y="40.5" width="39" height="39" stroke="black" stroke-opacity="0.3"/>
    <rect x="0.5" y="80.5" width="39" height="39" stroke="black" stroke-opacity="0.3"/>
    <rect x="0.5" y="120.5" width="39" height="39" stroke="black" stroke-opacity="0.3"/>
    <rect x="0.5" y="160.5" width="39" height="39" stroke="black" stroke-opacity="0.3"/>
    <rect x="0.5" y="200.5" width="39" height="39" stroke="black" stroke-opacity="0.3"/>
    <rect x="0.5" y="240.5" width="39" height="39" stroke="black" stroke-opacity="0.3"/>
    <rect x="0.5" y="280.5" width="39" height="39" stroke="black" stroke-opacity="0.3"/>
    <rect x="0.5" y="320.5" width="39" height="39" stroke="black" stroke-opacity="0.3"/>
    <rect x="0.5" y="360.5" width="39" height="39" stroke="black" stroke-opacity="0.3"/>
    <rect x="0.5" y="400.5" width="39" height="39" stroke="black" stroke-opacity="0.3"/>
    <rect x="0.5" y="440.5" width="39" height="39" stroke="black" stroke-opacity="0.3"/>
    <rect x="0.5" y="480.5" width="39" height="39" stroke="black" stroke-opacity="0.3"/>
    <rect x="0.5" y="520.5" width="39" height="39" stroke="black" stroke-opacity="0.3"/>
    <rect x="0.5" y="560.5" width="39" height="39" stroke="black" stroke-opacity="0.3"/>
    <rect x="0.5" y="600.5" width="39" height="39" stroke="black" stroke-opacity="0.3"/>
    <rect x="0.5" y="640.5" width="39" height="39" stroke="black" stroke-opacity="0.3"/>
    <rect x="0.5" y="680.5" width="39" height="39" stroke="black" stroke-opacity="0.3"/>
    <rect x="160.5" y="0.5" width="39" height="39" stroke="black" stroke-opacity="0.3"/>
    <rect x="160.5" y="40.5" width="39" height="39" stroke="black" stroke-opacity="0.3"/>
    <rect x="160.5" y="80.5" width="39" height="39" stroke="black" stroke-opacity="0.3"/>
    <rect x="160.5" y="120.5" width="39" height="39" stroke="black" stroke-opacity="0.3"/>
    <rect x="160.5" y="160.5" width="39" height="39" stroke="black" stroke-opacity="0.3"/>
    <rect x="160.5" y="200.5" width="39" height="39" stroke="black" stroke-opacity="0.3"/>
    <rect x="160.5" y="240.5" width="39" height="39" stroke="black" stroke-opacity="0.3"/>
    <rect x="160.5" y="280.5" width="39" height="39" stroke="black" stroke-opacity="0.3"/>
    <rect x="160.5" y="320.5" width="39" height="39" stroke="black" stroke-opacity="0.3"/>
    <rect x="160.5" y="360.5" width="39" height="39" stroke="black" stroke-opacity="0.3"/>
    <rect x="160.5" y="400.5" width="39" height="39" stroke="black" stroke-opacity="0.3"/>
    <rect x="160.5" y="440.5" width="39" height="39" stroke="black" stroke-opacity="0.3"/>
    <rect x="160.5" y="480.5" width="39" height="39" stroke="black" stroke-opacity="0.3"/>
    <rect x="160.5" y="520.5" width="39" height="39" stroke="black" stroke-opacity="0.3"/>
    <rect x="160.5" y="560.5" width="39" height="39" stroke="black" stroke-opacity="0.3"/>
    <rect x="160.5" y="600.5" width="39" height="39" stroke="black" stroke-opacity="0.3"/>
    <rect x="160.5" y="640.5" width="39" height="39" stroke="black" stroke-opacity="0.3"/>
    <rect x="160.5" y="680.5" width="39" height="39" stroke="black" stroke-opacity="0.3"/>
    <rect x="80.5" y="0.5" width="39" height="39" stroke="black" stroke-opacity="0.3"/>
    <rect x="80.5" y="40.5" width="39" height="39" stroke="black" stroke-opacity="0.3"/>
    <rect x="80.5" y="80.5" width="39" height="39" stroke="black" stroke-opacity="0.3"/>
    <rect x="80.5" y="120.5" width="39" height="39" stroke="black" stroke-opacity="0.3"/>
    <rect x="80.5" y="160.5" width="39" height="39" stroke="black" stroke-opacity="0.3"/>
    <rect x="80.5" y="200.5" width="39" height="39" stroke="black" stroke-opacity="0.3"/>
    <rect x="80.5" y="240.5" width="39" height="39" stroke="black" stroke-opacity="0.3"/>
    <rect x="80.5" y="280.5" width="39" height="39" stroke="black" stroke-opacity="0.3"/>
    <rect x="80.5" y="320.5" width="39" height="39" stroke="black" stroke-opacity="0.3"/>
    <rect x="80.5" y="360.5" width="39" height="39" stroke="black" stroke-opacity="0.3"/>
    <rect x="80.5" y="400.5" width="39" height="39" stroke="black" stroke-opacity="0.3"/>
    <rect x="80.5" y="440.5" width="39" height="39" stroke="black" stroke-opacity="0.3"/>
    <rect x="80.5" y="480.5" width="39" height="39" stroke="black" stroke-opacity="0.3"/>
    <rect x="80.5" y="520.5" width="39" height="39" stroke="black" stroke-opacity="0.3"/>
    <rect x="80.5" y="560.5" width="39" height="39" stroke="black" stroke-opacity="0.3"/>
    <rect x="80.5" y="600.5" width="39" height="39" stroke="black" stroke-opacity="0.3"/>
    <rect x="80.5" y="640.5" width="39" height="39" stroke="black" stroke-opacity="0.3"/>
    <rect x="80.5" y="680.5" width="39" height="39" stroke="black" stroke-opacity="0.3"/>
    <rect x="240.5" y="0.5" width="39" height="39" stroke="black" stroke-opacity="0.3"/>
    <rect x="240.5" y="40.5" width="39" height="39" stroke="black" stroke-opacity="0.3"/>
    <rect x="240.5" y="80.5" width="39" height="39" stroke="black" stroke-opacity="0.3"/>
    <rect x="240.5" y="120.5" width="39" height="39" stroke="black" stroke-opacity="0.3"/>
    <rect x="240.5" y="160.5" width="39" height="39" stroke="black" stroke-opacity="0.3"/>
    <rect x="240.5" y="200.5" width="39" height="39" stroke="black" stroke-opacity="0.3"/>
    <rect x="240.5" y="240.5" width="39" height="39" stroke="black" stroke-opacity="0.3"/>
    <rect x="240.5" y="280.5" width="39" height="39" stroke="black" stroke-opacity="0.3"/>
    <rect x="240.5" y="320.5" width="39" height="39" stroke="black" stroke-opacity="0.3"/>
    <rect x="240.5" y="360.5" width="39" height="39" stroke="black" stroke-opacity="0.3"/>
    <rect x="240.5" y="400.5" width="39" height="39" stroke="black" stroke-opacity="0.3"/>
    <rect x="240.5" y="440.5" width="39" height="39" stroke="black" stroke-opacity="0.3"/>
    <rect x="240.5" y="480.5" width="39" height="39" stroke="black" stroke-opacity="0.3"/>
    <rect x="240.5" y="520.5" width="39" height="39" stroke="black" stroke-opacity="0.3"/>
    <rect x="240.5" y="560.5" width="39" height="39" stroke="black" stroke-opacity="0.3"/>
    <rect x="240.5" y="600.5" width="39" height="39" stroke="black" stroke-opacity="0.3"/>
    <rect x="240.5" y="640.5" width="39" height="39" stroke="black" stroke-opacity="0.3"/>
    <rect x="240.5" y="680.5" width="39" height="39" stroke="black" stroke-opacity="0.3"/>
    <rect x="320.5" y="0.5" width="39" height="39" stroke="black" stroke-opacity="0.3"/>
    <rect x="320.5" y="40.5" width="39" height="39" stroke="black" stroke-opacity="0.3"/>
    <rect x="320.5" y="80.5" width="39" height="39" stroke="black" stroke-opacity="0.3"/>
    <rect x="320.5" y="120.5" width="39" height="39" stroke="black" stroke-opacity="0.3"/>
    <rect x="320.5" y="160.5" width="39" height="39" stroke="black" stroke-opacity="0.3"/>
    <rect x="320.5" y="200.5" width="39" height="39" stroke="black" stroke-opacity="0.3"/>
    <rect x="320.5" y="240.5" width="39" height="39" stroke="black" stroke-opacity="0.3"/>
    <rect x="320.5" y="280.5" width="39" height="39" stroke="black" stroke-opacity="0.3"/>
    <rect x="320.5" y="320.5" width="39" height="39" stroke="black" stroke-opacity="0.3"/>
    <rect x="320.5" y="360.5" width="39" height="39" stroke="black" stroke-opacity="0.3"/>
    <rect x="320.5" y="400.5" width="39" height="39" stroke="black" stroke-opacity="0.3"/>
    <rect x="320.5" y="440.5" width="39" height="39" stroke="black" stroke-opacity="0.3"/>
    <rect x="320.5" y="480.5" width="39" height="39" stroke="black" stroke-opacity="0.3"/>
    <rect x="320.5" y="520.5" width="39" height="39" stroke="black" stroke-opacity="0.3"/>
    <rect x="320.5" y="560.5" width="39" height="39" stroke="black" stroke-opacity="0.3"/>
    <rect x="320.5" y="600.5" width="39" height="39" stroke="black" stroke-opacity="0.3"/>
    <rect x="320.5" y="640.5" width="39" height="39" stroke="black" stroke-opacity="0.3"/>
    <rect x="320.5" y="680.5" width="39" height="39" stroke="black" stroke-opacity="0.3"/>
    <rect x="40.5" y="0.5" width="39" height="39" stroke="black" stroke-opacity="0.3"/>
    <rect x="40.5" y="40.5" width="39" height="39" stroke="black" stroke-opacity="0.3"/>
    <rect x="40.5" y="80.5" width="39" height="39" stroke="black" stroke-opacity="0.3"/>
    <rect x="40.5" y="120.5" width="39" height="39" stroke="black" stroke-opacity="0.3"/>
    <rect x="40.5" y="160.5" width="39" height="39" stroke="black" stroke-opacity="0.3"/>
    <rect x="40.5" y="200.5" width="39" height="39" stroke="black" stroke-opacity="0.3"/>
    <rect x="40.5" y="240.5" width="39" height="39" stroke="black" stroke-opacity="0.3"/>
    <rect x="40.5" y="280.5" width="39" height="39" stroke="black" stroke-opacity="0.3"/>
    <rect x="40.5" y="320.5" width="39" height="39" stroke="black" stroke-opacity="0.3"/>
    <rect x="40.5" y="360.5" width="39" height="39" stroke="black" stroke-opacity="0.3"/>
    <rect x="40.5" y="400.5" width="39" height="39" stroke="black" stroke-opacity="0.3"/>
    <rect x="40.5" y="440.5" width="39" height="39" stroke="black" stroke-opacity="0.3"/>
    <rect x="40.5" y="480.5" width="39" height="39" stroke="black" stroke-opacity="0.3"/>
    <rect x="40.5" y="520.5" width="39" height="39" stroke="black" stroke-opacity="0.3"/>
    <rect x="40.5" y="560.5" width="39" height="39" stroke="black" stroke-opacity="0.3"/>
    <rect x="40.5" y="600.5" width="39" height="39" stroke="black" stroke-opacity="0.3"/>
    <rect x="40.5" y="640.5" width="39" height="39" stroke="black" stroke-opacity="0.3"/>
    <rect x="40.5" y="680.5" width="39" height="39" stroke="black" stroke-opacity="0.3"/>
    <rect x="200.5" y="0.5" width="39" height="39" stroke="black" stroke-opacity="0.3"/>
    <rect x="200.5" y="40.5" width="39" height="39" stroke="black" stroke-opacity="0.3"/>
    <rect x="200.5" y="80.5" width="39" height="39" stroke="black" stroke-opacity="0.3"/>
    <rect x="200.5" y="120.5" width="39" height="39" stroke="black" stroke-opacity="0.3"/>
    <rect x="200.5" y="160.5" width="39" height="39" stroke="black" stroke-opacity="0.3"/>
    <rect x="200.5" y="200.5" width="39" height="39" stroke="black" stroke-opacity="0.3"/>
    <rect x="200.5" y="240.5" width="39" height="39" stroke="black" stroke-opacity="0.3"/>
    <rect x="200.5" y="280.5" width="39" height="39" stroke="black" stroke-opacity="0.3"/>
    <rect x="200.5" y="320.5" width="39" height="39" stroke="black" stroke-opacity="0.3"/>
    <rect x="200.5" y="360.5" width="39" height="39" stroke="black" stroke-opacity="0.3"/>
    <rect x="200.5" y="400.5" width="39" height="39" stroke="black" stroke-opacity="0.3"/>
    <rect x="200.5" y="440.5" width="39" height="39" stroke="black" stroke-opacity="0.3"/>
    <rect x="200.5" y="480.5" width="39" height="39" stroke="black" stroke-opacity="0.3"/>
    <rect x="200.5" y="520.5" width="39" height="39" stroke="black" stroke-opacity="0.3"/>
    <rect x="200.5" y="560.5" width="39" height="39" stroke="black" stroke-opacity="0.3"/>
    <rect x="200.5" y="600.5" width="39" height="39" stroke="black" stroke-opacity="0.3"/>
    <rect x="200.5" y="640.5" width="39" height="39" stroke="black" stroke-opacity="0.3"/>
    <rect x="200.5" y="680.5" width="39" height="39" stroke="black" stroke-opacity="0.3"/>
    <rect x="120.5" y="0.5" width="39" height="39" stroke="black" stroke-opacity="0.3"/>
    <rect x="120.5" y="40.5" width="39" height="39" stroke="black" stroke-opacity="0.3"/>
    <rect x="120.5" y="80.5" width="39" height="39" stroke="black" stroke-opacity="0.3"/>
    <rect x="120.5" y="120.5" width="39" height="39" stroke="black" stroke-opacity="0.3"/>
    <rect x="120.5" y="160.5" width="39" height="39" stroke="black" stroke-opacity="0.3"/>
    <rect x="120.5" y="200.5" width="39" height="39" stroke="black" stroke-opacity="0.3"/>
    <rect x="120.5" y="240.5" width="39" height="39" stroke="black" stroke-opacity="0.3"/>
    <rect x="120.5" y="280.5" width="39" height="39" stroke="black" stroke-opacity="0.3"/>
    <rect x="120.5" y="320.5" width="39" height="39" stroke="black" stroke-opacity="0.3"/>
    <rect x="120.5" y="360.5" width="39" height="39" stroke="black" stroke-opacity="0.3"/>
    <rect x="120.5" y="400.5" width="39" height="39" stroke="black" stroke-opacity="0.3"/>
    <rect x="120.5" y="440.5" width="39" height="39" stroke="black" stroke-opacity="0.3"/>
    <rect x="120.5" y="480.5" width="39" height="39" stroke="black" stroke-opacity="0.3"/>
    <rect x="120.5" y="520.5" width="39" height="39" stroke="black" stroke-opacity="0.3"/>
    <rect x="120.5" y="560.5" width="39" height="39" stroke="black" stroke-opacity="0.3"/>
    <rect x="120.5" y="600.5" width="39" height="39" stroke="black" stroke-opacity="0.3"/>
    <rect x="120.5" y="640.5" width="39" height="39" stroke="black" stroke-opacity="0.3"/>
    <rect x="120.5" y="680.5" width="39" height="39" stroke="black" stroke-opacity="0.3"/>
    <rect x="280.5" y="0.5" width="39" height="39" stroke="black" stroke-opacity="0.3"/>
    <rect x="280.5" y="40.5" width="39" height="39" stroke="black" stroke-opacity="0.3"/>
    <rect x="280.5" y="80.5" width="39" height="39" stroke="black" stroke-opacity="0.3"/>
    <rect x="280.5" y="120.5" width="39" height="39" stroke="black" stroke-opacity="0.3"/>
    <rect x="280.5" y="160.5" width="39" height="39" stroke="black" stroke-opacity="0.3"/>
    <rect x="280.5" y="200.5" width="39" height="39" stroke="black" stroke-opacity="0.3"/>
    <rect x="280.5" y="240.5" width="39" height="39" stroke="black" stroke-opacity="0.3"/>
    <rect x="280.5" y="280.5" width="39" height="39" stroke="black" stroke-opacity="0.3"/>
    <rect x="280.5" y="320.5" width="39" height="39" stroke="black" stroke-opacity="0.3"/>
    <rect x="280.5" y="360.5" width="39" height="39" stroke="black" stroke-opacity="0.3"/>
    <rect x="280.5" y="400.5" width="39" height="39" stroke="black" stroke-opacity="0.3"/>
    <rect x="280.5" y="440.5" width="39" height="39" stroke="black" stroke-opacity="0.3"/>
    <rect x="280.5" y="480.5" width="39" height="39" stroke="black" stroke-opacity="0.3"/>
    <rect x="280.5" y="520.5" width="39" height="39" stroke="black" stroke-opacity="0.3"/>
    <rect x="280.5" y="560.5" width="39" height="39" stroke="black" stroke-opacity="0.3"/>
    <rect x="280.5" y="600.5" width="39" height="39" stroke="black" stroke-opacity="0.3"/>
    <rect x="280.5" y="640.5" width="39" height="39" stroke="black" stroke-opacity="0.3"/>
    <rect x="280.5" y="680.5" width="39" height="39" stroke="black" stroke-opacity="0.3"/>
    <rect x="360.5" y="0.5" width="39" height="39" stroke="black" stroke-opacity="0.3"/>
    <rect x="360.5" y="40.5" width="39" height="39" stroke="black" stroke-opacity="0.3"/>
    <rect x="360.5" y="80.5" width="39" height="39" stroke="black" stroke-opacity="0.3"/>
    <rect x="360.5" y="120.5" width="39" height="39" stroke="black" stroke-opacity="0.3"/>
    <rect x="360.5" y="160.5" width="39" height="39" stroke="black" stroke-opacity="0.3"/>
    <rect x="360.5" y="200.5" width="39" height="39" stroke="black" stroke-opacity="0.3"/>
    <rect x="360.5" y="240.5" width="39" height="39" stroke="black" stroke-opacity="0.3"/>
    <rect x="360.5" y="280.5" width="39" height="39" stroke="black" stroke-opacity="0.3"/>
    <rect x="360.5" y="320.5" width="39" height="39" stroke="black" stroke-opacity="0.3"/>
    <rect x="360.5" y="360.5" width="39" height="39" stroke="black" stroke-opacity="0.3"/>
    <rect x="360.5" y="400.5" width="39" height="39" stroke="black" stroke-opacity="0.3"/>
    <rect x="360.5" y="440.5" width="39" height="39" stroke="black" stroke-opacity="0.3"/>
    <rect x="360.5" y="480.5" width="39" height="39" stroke="black" stroke-opacity="0.3"/>
    <rect x="360.5" y="520.5" width="39" height="39" stroke="black" stroke-opacity="0.3"/>
    <rect x="360.5" y="560.5" width="39" height="39" stroke="black" stroke-opacity="0.3"/>
    <rect x="360.5" y="600.5" width="39" height="39" stroke="black" stroke-opacity="0.3"/>
    <rect x="360.5" y="640.5" width="39" height="39" stroke="black" stroke-opacity="0.3"/>
    <rect x="360.5" y="680.5" width="39" height="39" stroke="black" stroke-opacity="0.3"/>
</svg>
